<svg width="25" height="26" viewBox="0 0 25 26" fill="none" xmlns="http://www.w3.org/2000/svg">
<path d="M12.5 0.583334C11.2227 0.583334 9.97401 0.962108 8.91194 1.67176C7.84988 2.38141 7.02209 3.39006 6.53328 4.57017C6.04446 5.75028 5.91657 7.04883 6.16576 8.30163C6.41496 9.55442 7.03005 10.7052 7.93327 11.6084C8.83648 12.5116 9.98725 13.1267 11.24 13.3759C12.4928 13.6251 13.7914 13.4972 14.9715 13.0084C16.1516 12.5196 17.1603 11.6918 17.8699 10.6297C18.5796 9.56766 18.9583 8.319 18.9583 7.04167C18.9583 5.32881 18.2779 3.68611 17.0667 2.47494C15.8556 1.26376 14.2129 0.583334 12.5 0.583334ZM12.5 10.9167C11.7336 10.9167 10.9844 10.6894 10.3472 10.2636C9.70992 9.83782 9.21326 9.23263 8.91997 8.52457C8.62668 7.8165 8.54994 7.03737 8.69946 6.28569C8.84897 5.53402 9.21803 4.84356 9.75996 4.30163C10.3019 3.7597 10.9923 3.39064 11.744 3.24112C12.4957 3.09161 13.2748 3.16834 13.9829 3.46163C14.691 3.75492 15.2962 4.25159 15.7219 4.88883C16.1477 5.52607 16.375 6.27526 16.375 7.04167C16.375 8.06938 15.9667 9.055 15.24 9.78171C14.5133 10.5084 13.5277 10.9167 12.5 10.9167ZM24.125 25.125V23.8333C24.125 21.4353 23.1724 19.1356 21.4768 17.4399C19.7811 15.7443 17.4813 14.7917 15.0833 14.7917H9.91667C7.51867 14.7917 5.21888 15.7443 3.52324 17.4399C1.8276 19.1356 0.875 21.4353 0.875 23.8333V25.125H3.45833V23.8333C3.45833 22.1205 4.13876 20.4778 5.34994 19.2666C6.56111 18.0554 8.20381 17.375 9.91667 17.375H15.0833C16.7962 17.375 18.4389 18.0554 19.6501 19.2666C20.8612 20.4778 21.5417 22.1205 21.5417 23.8333V25.125H24.125Z" fill="black"/>
</svg>
